<svg xmlns="http://www.w3.org/2000/svg" xmlns:xlink="http://www.w3.org/1999/xlink" viewBox="0 0 300.53 230.63">
    <defs>
        <style>
            .cls-1,.cls-3{fill:#fff;}.cls-2{fill:url(#未命名的渐变_2);}.cls-3{stroke:#fff;stroke-miterlimit:10;stroke-width:4px;}.cls-4{fill:url(#未命名的渐变_4);}
        </style>
        <linearGradient id="未命名的渐变_2" x1="9.71" y1="195.96" x2="240.79" y2="195.96"
                        gradientUnits="userSpaceOnUse">
            <stop offset="0.02"/>
            <stop offset="0.07" stop-color="#1d1d1d"/>
            <stop offset="0.19" stop-color="#585858"/>
            <stop offset="0.31" stop-color="#8b8b8b"/>
            <stop offset="0.42" stop-color="#b5b5b5"/>
            <stop offset="0.53" stop-color="#d5d5d5"/>
            <stop offset="0.64" stop-color="#ececec"/>
            <stop offset="0.74" stop-color="#fafafa"/>
            <stop offset="0.83" stop-color="#fff"/>
        </linearGradient>
        <linearGradient id="未命名的渐变_4" x1="52.35" y1="46.36" x2="251.41" y2="109.5" gradientUnits="userSpaceOnUse">
            <stop offset="0"/>
            <stop offset="0.05" stop-color="#1d1d1d"/>
            <stop offset="0.17" stop-color="#585858"/>
            <stop offset="0.3" stop-color="#8b8b8b"/>
            <stop offset="0.41" stop-color="#b5b5b5"/>
            <stop offset="0.53" stop-color="#d5d5d5"/>
            <stop offset="0.64" stop-color="#ececec"/>
            <stop offset="0.74" stop-color="#fafafa"/>
            <stop offset="0.83" stop-color="#fff"/>
        </linearGradient>
    </defs>
    <g id="图层_2" data-name="图层 2">
        <path class="cls-1"
              d="M98.39,29.57c-7.11,0-4.65,0-13,.75L79.26,39c3.51-.69,10.59-.75,14.48-.75,31.83,0,53.13,23.08,50.9,55.39C142.73,121.2,125,141.78,97.4,143.28c-24.05,1.31-45.85-10.72-54.72-31.22l-1.2,2.29c.11.26.2.52.31.77,8.93,22.11,31.78,39.3,55.61,39,32.37.5,59.73-29.75,60.17-62.1C158,60.49,126.77,29.48,98.39,29.57Z"/>
        <polygon class="cls-1"
                 points="112.81 142.23 133.23 220.22 116.42 224.38 98.09 145.88 112.81 142.23 112.81 142.23"/>
        <path class="cls-1"
              d="M43.23,124.09C49.8,131,57,137.86,65.26,142.7a56.73,56.73,0,0,0,27.52,6.79,58.23,58.23,0,0,0,9.49-.69c3-.63,6.32-1.6,9.55-2.28l.82,4.11c-1.59.29-3.18.6-4.77.94a52.78,52.78,0,0,1-15.07,1.57A61.28,61.28,0,0,1,55,140.45a172.36,172.36,0,0,1-15.25-13l3.5-3.37Z"/>
        <path class="cls-1"
              d="M27.67,169.18l24-39.41c-3.64-1.9-9.09-11.07-9.09-15.46a13.15,13.15,0,0,1,.11-1.55l-.36-.22L7.17,172.16Z"/>
        <path class="cls-2"
              d="M106.24,191.57l1.18,4.24A334.62,334.62,0,0,0,74.76,184c-15.76-4.36-32.22-6.4-48.58-7.13-5.44-.33-11.16-.18-16.47-.27,27.42-2.32,55.68-.08,81.7,9.38Q98.9,188.61,106.24,191.57Zm134.55,7.35c-4.36-1.59-12.74-2.28-12.74-2.28s-6.94-.63-12.54-.81h0a254.46,254.46,0,0,0-38.16.61A206.61,206.61,0,0,0,136,206.31c-2-1.26-4.09-2.45-6.15-3.6l1.38,4.47c1.26.68,2.53,1.33,3.77,2l.56.32.67-.14c6.86-1.34,13.86-2.28,20.81-3a167,167,0,0,1,41.37,1.12c4,.52,7.94,1.06,11.89,1.71l25.13,6.93S237.84,208.79,240.79,198.92Z"/>
        <line class="cls-3" x1="243.73" y1="220.15" x2="293.36" y2="52.96"/>
        <path class="cls-4"
              d="M280.91,34.87a267,267,0,0,0-53.77,8.25A238.64,238.64,0,0,0,179.9,60.54c-9.11-11.73-17.83-16.84-29.39-25.67C136,23.74,116.41,14.17,99.75,6.26,99.29,7,93,17.9,87.7,26.66c5.67-.23,4.19.1,10.69.08.59,0-.6,0,0,0l5.83-8.94C117,22.88,128.6,30.61,141.37,39.28c11,10,26.12,22.64,34.6,39.24,17.14-8.7,34.8-16.72,53.5-21.4,14.47-3.83,22.8-5,38-4.49L218.74,185.8c8.49-.1,17,.3,25.46.94,14.62-49,42.37-142.09,42.37-142.09l2.75-9.78Z"/>
    </g>
</svg>