<svg xmlns="http://www.w3.org/2000/svg" viewBox="0 0 302.68 282.21">
    <defs>
        <style>
            .cls-1,.cls-3{fill:#231815;}.cls-2{fill:url(#未命名的渐变_7);}.cls-3{stroke:#231815;stroke-miterlimit:10;stroke-width:4px;}.cls-4{fill:url(#未命名的渐变_8);}
        </style>
        <linearGradient id="未命名的渐变_7" x1="50.17" y1="176.52" x2="205.51" y2="176.52"
                        gradientUnits="userSpaceOnUse">
            <stop offset="0.02" stop-color="#fff"/>
            <stop offset="0.07" stop-color="#e2e2e2"/>
            <stop offset="0.19" stop-color="#a7a7a7"/>
            <stop offset="0.31" stop-color="#747474"/>
            <stop offset="0.42" stop-color="#4a4a4a"/>
            <stop offset="0.53" stop-color="#2a2a2a"/>
            <stop offset="0.64" stop-color="#131313"/>
            <stop offset="0.74" stop-color="#050505"/>
            <stop offset="0.83"/>
        </linearGradient>
        <linearGradient id="未命名的渐变_8" x1="78.83" y1="75.95" x2="212.65" y2="118.4" gradientUnits="userSpaceOnUse">
            <stop offset="0" stop-color="#fff"/>
            <stop offset="0.05" stop-color="#e2e2e2"/>
            <stop offset="0.17" stop-color="#a7a7a7"/>
            <stop offset="0.3" stop-color="#747474"/>
            <stop offset="0.41" stop-color="#4a4a4a"/>
            <stop offset="0.53" stop-color="#2a2a2a"/>
            <stop offset="0.64" stop-color="#131313"/>
            <stop offset="0.74" stop-color="#050505"/>
            <stop offset="0.83"/>
        </linearGradient>
    </defs>
    <g id="图层_2" data-name="图层 2">
        <path class="cls-1"
              d="M109.78,64.67a57.54,57.54,0,0,0-8.73.5L96.92,71a65.82,65.82,0,0,1,9.74-.5c21.4,0,35.72,15.51,34.21,37.23-1.28,18.53-13.2,32.37-31.75,33.38-16.17.88-30.82-7.21-36.79-21l-.8,1.54c.07.17.13.35.2.52,6,14.86,21.37,26.41,37.39,26.23,21.76.34,40.15-20,40.45-41.75C149.86,85.45,128.86,64.61,109.78,64.67Z"/>
        <polygon class="cls-1"
                 points="119.48 140.4 133.2 192.82 121.91 195.62 109.58 142.85 119.48 140.4 119.48 140.4"/>
        <path class="cls-1"
              d="M73.28,127.66c4.28,4.68,9,9.26,14.52,12.52a37,37,0,0,0,18.21,4.5c4.61.12,8.24-1,12.67-2.07l.82,4.11c-2.25.35-4.23.85-6.53,1.29-11.53,1.42-23.52-1.12-32.76-8.29A126.48,126.48,0,0,1,69.78,131l3.5-3.36Z"/>
        <path class="cls-1"
              d="M62.24,158.52,78.39,132c-2.45-1.27-6.12-7.44-6.12-10.39a7.17,7.17,0,0,1,.08-1l-.25-.15L48.46,160.52Z"/>
        <path class="cls-2"
              d="M115.06,173.56l.79,2.86a224,224,0,0,0-21.95-8,147.38,147.38,0,0,0-32.66-4.79c-3.66-.23-7.5-.12-11.07-.18,18.44-1.57,37.43-.06,54.92,6.3Q110.13,171.58,115.06,173.56Zm90.45,4.95A44,44,0,0,0,197,177s-4.67-.42-8.43-.54h0a170.1,170.1,0,0,0-25.64.41,138.22,138.22,0,0,0-27.81,6.62c-1.37-.84-2.75-1.64-4.14-2.42l.94,3,2.53,1.36.37.22.45-.1c4.61-.89,9.32-1.53,14-2a112,112,0,0,1,27.81.76c2.67.35,5.34.71,8,1.15l16.89,4.66S203.53,185.14,205.51,178.51Z"/>
        <line class="cls-3" x1="207.48" y1="192.78" x2="240.85" y2="80.39"/>
        <path class="cls-4"
              d="M232.48,68.23a179.55,179.55,0,0,0-36.14,5.55,160.47,160.47,0,0,0-31.76,11.7c-6.13-7.88-12-11.31-19.76-17.25C135,60.74,121.9,54.31,110.7,49c-.31.49-4.56,7.83-8.1,13.72,3.81-.15,2.82.07,7.18,0h0l3.92-6c8.61,3.42,16.39,8.61,25,14.44,7.4,6.76,17.56,15.22,23.25,26.38,11.53-5.85,23.4-11.24,36-14.38,9.73-2.58,15.33-3.37,25.56-3l-32.77,89.52c5.7-.07,11.42.2,17.11.63L236.28,74.8l1.85-6.57Z"/>
    </g>
</svg>