<svg width="400" height="300" xmlns="http://www.w3.org/2000/svg">
 <defs>
  <linearGradient gradientTransform="matrix(2.0184340476989746,0,0,2.0184340476989746,-91.97657012939453,-96.87464141845703)" gradientUnits="userSpaceOnUse" y2="176.52" x2="205.51" y1="176.52" x1="50.17" id="svg_3">
   <stop stop-color="#fff" offset="0.02"/>
   <stop stop-color="#e2e2e2" offset="0.07"/>
   <stop stop-color="#a7a7a7" offset="0.19"/>
   <stop stop-color="#747474" offset="0.31"/>
   <stop stop-color="#4a4a4a" offset="0.42"/>
   <stop stop-color="#2a2a2a" offset="0.53"/>
   <stop stop-color="#131313" offset="0.64"/>
   <stop stop-color="#050505" offset="0.74"/>
   <stop offset="0.83"/>
  </linearGradient>
  <linearGradient gradientTransform="matrix(2.0184340476989746,0,0,2.0184340476989746,-91.97657012939453,-96.87464141845703)" gradientUnits="userSpaceOnUse" y2="118.4" x2="212.65" y1="75.95" x1="78.83" id="svg_2">
   <stop stop-color="#fff" offset="0"/>
   <stop stop-color="#e2e2e2" offset="0.05"/>
   <stop stop-color="#a7a7a7" offset="0.17"/>
   <stop stop-color="#747474" offset="0.3"/>
   <stop stop-color="#4a4a4a" offset="0.41"/>
   <stop stop-color="#2a2a2a" offset="0.53"/>
   <stop stop-color="#131313" offset="0.64"/>
   <stop stop-color="#050505" offset="0.74"/>
   <stop offset="0.83"/>
  </linearGradient>
 </defs>
 <g>
  <title>Layer 1</title>
  <g stroke="null">

   <g stroke="null" data-name="图层 2" id="svg_1">
    <path stroke="null" fill="#231815" d="m129.6071,33.65749a116.14069,116.14069 0 0 0 -17.62093,1.00922l-8.33613,11.76747a132.85332,132.85332 0 0 1 19.65955,-1.00922c43.19449,0 72.09846,31.30591 69.05063,75.1463c-2.5836,37.40158 -26.64333,65.33671 -64.08528,67.37533c-32.63808,1.77622 -62.20813,-14.55291 -74.25819,-42.38711l-1.61475,3.10839c0.14129,0.34313 0.2624,0.70645 0.40369,1.04959c12.1106,29.99393 43.13393,53.30684 75.46925,52.94352c43.92112,0.68627 81.04012,-40.36868 81.64565,-84.26962c0.58535,-42.7908 -41.80177,-84.85496 -80.31349,-84.73386z" class="cls-1"/>
    <polygon stroke="null" fill="#231815" points="149.18594360351562,186.5134735107422 176.87879943847656,292.31983947753906 154.0906982421875,297.9713897705078 129.20338439941406,191.4586639404297 149.18594360351562,186.5134735107422 149.18594360351562,186.5134735107422 " class="cls-1"/>
    <path stroke="null" fill="#231815" d="m55.93426,160.79864c8.6389,9.44627 18.16591,18.6907 29.30766,25.27079a74.68206,74.68206 0 0 0 36.75568,9.08295c9.30498,0.24221 16.6319,-2.01843 25.57356,-4.17816l1.65512,8.29576c-4.54148,0.70645 -8.53798,1.71567 -13.18037,2.60378c-23.27254,2.86618 -47.47357,-2.26065 -66.1239,-16.73282a255.29153,255.29153 0 0 1 -21.05227,-17.60074l7.06452,-6.78194l0,0.04037z" class="cls-1"/>
    <path stroke="null" fill="#231815" d="m33.65075,223.08751l32.59771,-53.52887c-4.94516,-2.56341 -12.35282,-15.01715 -12.35282,-20.97153a14.47217,14.47217 0 0 1 0.16147,-2.01843l-0.50461,-0.30277l-47.71578,80.85846l27.81402,-4.03687z" class="cls-1"/>
    <path stroke="null" fill="url(#svg_3)" d="m140.26443,253.44476l1.59456,5.77272a452.12921,452.12921 0 0 0 -44.30463,-16.14747a297.4768,297.4768 0 0 0 -65.92205,-9.6683c-7.38747,-0.46424 -15.13825,-0.24221 -22.34406,-0.36332c37.21992,-3.16894 75.54998,-0.12111 110.85239,12.71613q10.17291,3.69373 20.12379,7.69023zm182.56735,9.99125a88.81109,88.81109 0 0 0 -17.17687,-3.04784s-9.42609,-0.84774 -17.0154,-1.08995l0,0a343.33562,343.33562 0 0 0 -51.75265,0.82756a278.98794,278.98794 0 0 0 -56.13265,13.36203c-2.76525,-1.69548 -5.55069,-3.31023 -8.35632,-4.88461l1.89733,6.0553l5.10664,2.74507l0.74682,0.44406l0.9083,-0.20184c9.30498,-1.79641 18.8118,-3.0882 28.25808,-4.03687a226.0646,226.0646 0 0 1 56.13265,1.53401c5.38922,0.70645 10.77844,1.43309 16.14747,2.3212l34.09135,9.4059s3.14876,-10.0518 7.14526,-23.43402z" class="cls-2"/>
    <line stroke="#231815" stroke-width="4px" stroke-miterlimit="10" fill="#231815" y2="65.38727" x2="394.16324" y1="292.23906" x1="326.8081" class="cls-3"/>
    <path stroke="null" fill="url(#svg_2)" d="m377.26895,40.84311a362.40982,362.40982 0 0 0 -72.9462,11.20231a323.8981,323.8981 0 0 0 -64.10546,23.61568c-12.373,-15.90526 -24.22121,-22.82849 -39.88426,-34.81799c-19.82102,-15.11807 -46.26251,-28.0966 -68.86897,-38.81449c-0.62571,0.98903 -9.20406,15.80434 -16.34932,27.69291c7.69023,-0.30277 5.69198,0.14129 14.49236,0l0,0l7.91226,-12.1106c17.37872,6.90304 33.08213,17.37872 50.46085,29.14619c14.93641,13.64461 35.4437,30.72057 46.92859,53.24629c23.27254,-11.80784 47.23135,-22.6872 72.66362,-29.02508c19.63936,-5.20756 30.94259,-6.80212 51.59117,-6.0553l-66.14408,180.69021c11.50507,-0.14129 23.05052,0.40369 34.53541,1.27161l57.38408,-192.78063l3.7341,-13.26111l-11.40415,0z" class="cls-4"/>
   </g>
  </g>
 </g>
</svg>